<?xml version="1.0" encoding="iso-8859-1"?>
<!-- Generator: Adobe Illustrator 19.0.0, SVG Export Plug-In . SVG Version: 6.00 Build 0)  -->
<svg version="1.1" id="Layer_1" xmlns="http://www.w3.org/2000/svg" xmlns:xlink="http://www.w3.org/1999/xlink" x="0px" y="0px"
	 viewBox="0 0 455 455" style="enable-background:new 0 0 455 455;" xml:space="preserve">
<g>
	<g>
		<path d="M227.5,0C101.762,0,0,101.75,0,227.5C0,353.239,101.75,455,227.5,455C353.24,455,455,353.25,455,227.5
			C455,101.761,353.251,0,227.5,0z M352.947,238.106l-68.939,68.939c-9.371,9.372-25.606,2.836-25.606-10.606v-12.691h-145.74
			c-8.284,0-15-6.716-15-15v-82.496c0-8.284,6.716-15,15-15h145.74V158.56c0-13.361,16.202-20.016,25.606-10.606l68.939,68.939
			C358.805,222.751,358.805,232.249,352.947,238.106z"/>
	</g>
</g>
<g>
</g>
<g>
</g>
<g>
</g>
<g>
</g>
<g>
</g>
<g>
</g>
<g>
</g>
<g>
</g>
<g>
</g>
<g>
</g>
<g>
</g>
<g>
</g>
<g>
</g>
<g>
</g>
<g>
</g>
</svg>
