<svg width="40" height="27" viewBox="0 0 40 27" fill="none" xmlns="http://www.w3.org/2000/svg">
<path d="M2.4105 0.885986H37.3926C37.6158 0.890407 37.8359 0.939022 38.0405 1.02856C38.2451 1.11811 38.43 1.24693 38.5847 1.40796C38.7394 1.56898 38.861 1.75906 38.9422 1.96704C39.0235 2.17502 39.063 2.3971 39.0585 2.62036V24.2961C39.0673 24.7469 38.8968 25.1826 38.5843 25.5076C38.2719 25.8326 37.8433 26.0201 37.3926 26.0291H2.4105C1.95978 26.0201 1.53103 25.8326 1.21861 25.5076C0.906182 25.1826 0.735648 24.7469 0.744487 24.2961V2.62036C0.739977 2.3971 0.779528 2.17502 0.86082 1.96704C0.942112 1.75906 1.06353 1.56898 1.21824 1.40796C1.37295 1.24693 1.55787 1.11811 1.76243 1.02856C1.967 0.939022 2.18724 0.890407 2.4105 0.885986Z" fill="#353A40"/>
<path d="M23.4332 17.4503C23.1689 17.3159 22.9514 17.1042 22.8093 16.8439C22.6389 16.5252 22.5561 16.1674 22.5693 15.8063C22.5547 15.5601 22.5889 15.3135 22.6703 15.0807C22.7517 14.8479 22.8785 14.6337 23.0433 14.4503C23.2186 14.2834 23.4262 14.1542 23.6534 14.0709C23.8807 13.9877 24.1227 13.9517 24.3643 13.966C24.6077 13.9503 24.8518 13.9845 25.0815 14.0665C25.3113 14.1486 25.5219 14.2767 25.7003 14.443C25.8636 14.623 25.9892 14.8338 26.0697 15.0631C26.1502 15.2924 26.1842 15.5354 26.1693 15.778C26.1842 16.1296 26.1156 16.4798 25.9692 16.7999C25.8371 17.0605 25.6313 17.2765 25.3773 17.421C25.0799 17.5783 24.7465 17.655 24.4103 17.6432C24.0741 17.6553 23.7396 17.5894 23.4332 17.4503ZM23.8392 15.0333C23.7103 15.2717 23.6428 15.5382 23.6428 15.8092C23.6428 16.0802 23.7103 16.3468 23.8392 16.5851C23.9072 16.6589 23.9899 16.7176 24.0818 16.7579C24.1737 16.7982 24.2729 16.8195 24.3733 16.8195C24.4736 16.8195 24.5729 16.7982 24.6648 16.7579C24.7567 16.7176 24.8392 16.6589 24.9072 16.5851C25.0588 16.3378 25.1256 16.0476 25.0973 15.7589C25.1188 15.4984 25.0481 15.2387 24.8973 15.025C24.8313 14.9485 24.7486 14.8883 24.6558 14.8483C24.5629 14.8083 24.4623 14.7896 24.3613 14.7941C24.2618 14.7913 24.163 14.8112 24.0725 14.8527C23.982 14.8941 23.9021 14.9562 23.8392 15.0333ZM13.9272 17.6071C13.753 17.5899 13.5834 17.5404 13.4272 17.4611C13.2857 17.3838 13.1607 17.2794 13.0593 17.1539C12.9555 17.0349 12.8775 16.896 12.8303 16.7452C12.769 16.5509 12.7353 16.3489 12.7303 16.1451V14.027H13.8013V16.195C13.7965 16.2774 13.808 16.3602 13.8353 16.4381C13.8626 16.516 13.9052 16.5876 13.9603 16.6491C14.0817 16.7533 14.2363 16.8107 14.3962 16.8107C14.5562 16.8107 14.7109 16.7533 14.8323 16.6491C14.8874 16.587 14.9298 16.5146 14.9569 16.4362C14.984 16.3577 14.9953 16.2749 14.9902 16.192V14.0241H16.0613V16.1422C16.0618 16.3464 16.028 16.5493 15.9613 16.7423C15.8997 16.9259 15.797 17.0929 15.6613 17.2311C15.5415 17.3617 15.3944 17.4639 15.2303 17.5309C14.9891 17.6149 14.7346 17.655 14.4792 17.6491C14.2949 17.6454 14.111 17.6311 13.9283 17.6061L13.9272 17.6071ZM29.0663 17.5831L27.7662 15.631V17.5831H26.7562V14.028H27.7562L29.0653 15.9943V14.028H30.0773V17.5831H29.0663ZM19.0883 17.5831L17.7883 15.631V17.5831H16.7783V14.028H17.7783L19.0863 15.9943V14.028H20.0983V17.5831H19.0883ZM20.8583 17.5739V14.025H21.9382V17.5739H20.8583ZM12.6533 12.5929C12.4218 12.353 12.2843 12.0381 12.2662 11.7052L13.2883 11.6403C13.299 11.7789 13.3451 11.9122 13.4222 12.028C13.478 12.0996 13.5502 12.1567 13.6327 12.1945C13.7152 12.2322 13.8056 12.2499 13.8962 12.2452C14.0243 12.2538 14.151 12.2139 14.2513 12.1339C14.2889 12.1042 14.3193 12.0666 14.3405 12.0236C14.3616 11.9806 14.3728 11.9333 14.3734 11.8854C14.374 11.8375 14.3638 11.7902 14.3438 11.7467C14.3237 11.7032 14.2942 11.6646 14.2573 11.6339C14.0911 11.5262 13.9034 11.4558 13.7073 11.4279C13.3418 11.3667 12.9965 11.2189 12.7003 10.9962C12.6027 10.9112 12.525 10.8053 12.4731 10.6867C12.4213 10.568 12.3964 10.4396 12.4003 10.3102C12.4007 10.1265 12.4546 9.94677 12.5553 9.7931C12.6692 9.62168 12.8319 9.48847 13.0223 9.41029C13.2948 9.30593 13.5858 9.25846 13.8773 9.27113C14.2342 9.24732 14.5896 9.33607 14.8933 9.52503C15.0158 9.62197 15.1163 9.74414 15.188 9.88294C15.2597 10.0217 15.3011 10.1742 15.3093 10.3302L14.2972 10.3912C14.284 10.2584 14.2238 10.1345 14.1273 10.0421C14.0252 9.96419 13.8985 9.92562 13.7703 9.93324C13.6696 9.9259 13.5697 9.95467 13.4883 10.0143C13.4583 10.0382 13.4342 10.0685 13.4177 10.1032C13.4013 10.1378 13.3929 10.1756 13.3933 10.214C13.3941 10.2439 13.4016 10.2733 13.4153 10.2999C13.429 10.3266 13.4484 10.3502 13.4723 10.3683C13.5815 10.4378 13.7048 10.4821 13.8333 10.4982C14.1808 10.5625 14.5196 10.6679 14.8423 10.8121C15.0243 10.8994 15.1779 11.0363 15.2853 11.2072C15.3781 11.3664 15.4259 11.5478 15.4233 11.7321C15.4246 11.9559 15.3602 12.1752 15.2383 12.3629C15.1129 12.5567 14.933 12.7091 14.7213 12.8009C14.456 12.908 14.1712 12.9591 13.8853 12.9503C13.4436 12.9965 13.0015 12.8676 12.6533 12.5919V12.5929ZM29.0673 12.8829L27.7673 10.9303V12.8829H26.7573V9.32826H27.7573L29.0663 11.2951V9.32826H30.0782V12.8829H29.0673ZM25.1923 12.8829L24.6183 11.796C24.5721 11.693 24.5059 11.6002 24.4233 11.5231C24.3464 11.4681 24.2539 11.439 24.1593 11.4401H24.0643V12.8829H22.9852V9.32826H24.7743C25.0309 9.31818 25.2875 9.34744 25.5353 9.41517C25.7092 9.472 25.859 9.58555 25.9603 9.73792C26.0715 9.909 26.1277 10.1102 26.1213 10.3141C26.1258 10.4923 26.0834 10.6687 25.9983 10.8253C25.9159 10.9677 25.799 11.0867 25.6583 11.172C25.5409 11.2388 25.4136 11.2868 25.2812 11.3141C25.3805 11.3434 25.4749 11.3871 25.5613 11.444C25.6256 11.4996 25.683 11.5627 25.7323 11.632C25.7894 11.7004 25.8399 11.7743 25.8833 11.8522L26.4033 12.8829H25.1923ZM24.0653 10.7672H24.5183C24.6143 10.7603 24.7093 10.7439 24.8022 10.7189C24.8719 10.7046 24.934 10.6652 24.9763 10.608C25.0214 10.5485 25.0453 10.4757 25.0443 10.401C25.0474 10.3517 25.0394 10.3023 25.0209 10.2565C25.0024 10.2106 24.9738 10.1692 24.9373 10.1359C24.8176 10.0623 24.6769 10.0305 24.5372 10.0451H24.0653V10.7672ZM19.4653 12.8829V9.32826H22.3433V10.087H20.5433V10.652H22.2153V11.3781H20.5433V12.0783H22.3983V12.8829H19.4653ZM16.8132 12.8829V10.2062H15.7183V9.32826H18.9833V10.2062H17.8833V12.8829H16.8132ZM8.94824 12.8829V9.32826H11.8263V10.087H10.0262V10.652H11.6973V11.3781H10.0183V12.0783H11.8713V12.8829H8.94824ZM6.78125 12.8829L6.17224 10.6442L5.56531 12.8829H4.51233L3.73926 9.32826H4.75928L5.12634 11.318L5.66431 9.32826H6.6803L7.21924 11.316L7.5863 9.32826H8.60132L7.83533 12.8829H6.78125Z" fill="#ECD345"/>
<path d="M34.8689 17.6453V9.26538H36.0688V17.6453H34.8689ZM31.8789 17.6453V9.26538H33.0789V17.6453H31.8789Z" fill="#ECD345"/>
</svg>
